# xmcd
#
# Track frame offsets:
#	150
#	11716
#	28802
#	45920
#	63320
#	74697
#	90373
#	108990
#	129345
#	145098
#	163603
#	182814
#	203502
#	225318
#	243206
#	260901
#	281783
#	301172
#	319622
#	336568
#
# Disc length: 4740 seconds
#
# Revision: 0
# Processed by: cddbd v1.5.2PL0 Copyright (c) Steve Scherf et al.
# Submitted via: EZCDAudioConverter 2.0.5.1
#
DISCID=16128214
DTITLE=Artistes varies - Lounge Anthology 2011 - CD 2
DYEAR=2011
DGENRE=Lounge
TTITLE0=Raphael Saadiq - Ray Ray Theme
TTITLE1=Mr Scruff - Music Takes Me Up (with Alice Russell)
TTITLE2=PPP - On A Cloud (with Karma)
TTITLE3=The Lions - Think (About It)
TTITLE4=Shawn Lee - Jigsaw (with Nicole Willis)
TTITLE5=Breakestra - Gotta Let Me Know
TTITLE6=Uptown Funk Empire - Boogie
TTITLE7=Allen Hoist - Inne City Blues
TTITLE8=Connnie Price and The Keystones - Highlife (with Kykah 9)
TTITLE9=Ohmega Watts - Model Citizen
TTITLE10=Nomo - My Dear
TTITLE11=Greyboy - Got To Be A Love (with Sharon Jones)
TTITLE12=Moloko - The Time Is Now
TTITLE13=Osunlade - Crazy You
TTITLE14=Zuco 103 - Outro Lado
TTITLE15=Cibelle - Sereia, Amor D'Aqua
TTITLE16=Bebel Gilberto - Cada Beijo
TTITLE17=Reminiscence Quartet - Onde Anda Meu Amor (with Salome De Bahia)
TTITLE18=Tom and Joyce - Para Bailar
TTITLE19=Victor Davies - Better Place
EXTD=
EXTT0=
EXTT1=
EXTT2=
EXTT3=
EXTT4=
EXTT5=
EXTT6=
EXTT7=
EXTT8=
EXTT9=
EXTT10=
EXTT11=
EXTT12=
EXTT13=
EXTT14=
EXTT15=
EXTT16=
EXTT17=
EXTT18=
EXTT19=
PLAYORDER=
